<?xml version="1.0" encoding="UTF-8" standalone="no"?>
<!DOCTYPE svg PUBLIC "-//W3C//DTD SVG 1.1//EN" "http://www.w3.org/Graphics/SVG/1.1/DTD/svg11.dtd">
<svg width="100%" height="100%" viewBox="0 0 544 640" version="1.1" xmlns="http://www.w3.org/2000/svg" xmlns:xlink="http://www.w3.org/1999/xlink" xml:space="preserve" xmlns:serif="http://www.serif.com/" style="fill-rule:evenodd;clip-rule:evenodd;stroke-miterlimit:1.5;">
    <rect id="illu" x="0" y="0" width="544" height="640" style="fill:none;"/>
    <g id="illu1" serif:id="illu">
        <path d="M192,16l-66,12l18,56l48,-68Z" style="fill:none;stroke:white;stroke-width:1px;"/>
        <path d="M126,28l-52,12l70,44l-18,-56Z" style="fill:none;stroke:white;stroke-width:1px;"/>
        <path d="M74,40l-26,42l96,2l-70,-44Z" style="fill:none;stroke:white;stroke-width:1px;"/>
        <path d="M144,84l-70,36l-26,-38l96,2Z" style="fill:none;stroke:white;stroke-width:1px;"/>
        <path d="M48,82l-40,50l66,-12l-26,-38Z" style="fill:none;stroke:white;stroke-width:1px;"/>
        <path d="M192,16l28,32l-76,36l48,-68Z" style="fill:none;stroke:white;stroke-width:1px;"/>
        <path d="M220,48l-42,114l-34,-78l76,-36Z" style="fill:none;stroke:white;stroke-width:1px;"/>
        <path d="M144,84l-20,52l54,26l-34,-78Z" style="fill:none;stroke:white;stroke-width:1px;"/>
        <path d="M74,120l70,-36l-20,52l-50,-16Z" style="fill:none;stroke:white;stroke-width:1px;"/>
        <path d="M220,48l44,66l-86,48l42,-114Z" style="fill:none;stroke:white;stroke-width:1px;"/>
        <path d="M220,48l106,10l-62,56l-44,-66Z" style="fill:none;stroke:white;stroke-width:1px;"/>
        <path d="M326,58l20,76l-82,-20l62,-56Z" style="fill:none;stroke:white;stroke-width:1px;"/>
        <path d="M326,58l62,4l-42,72l-20,-76Z" style="fill:none;stroke:white;stroke-width:1px;"/>
        <path d="M346,134l48,-30l-6,-42l-42,72Z" style="fill:none;stroke:white;stroke-width:1px;"/>
        <path d="M264,114l82,20l-74,42l-8,-62Z" style="fill:none;stroke:white;stroke-width:1px;"/>
        <path d="M178,162l86,-48l8,62l-94,-14Z" style="fill:none;stroke:white;stroke-width:1px;"/>
        <path d="M394,104l-48,30l34,64l14,-94Z" style="fill:none;stroke:white;stroke-width:1px;"/>
        <path d="M394,104l24,56l-38,38l14,-94Z" style="fill:none;stroke:white;stroke-width:1px;"/>
        <path d="M414,234l4,-74l-38,38l34,36Z" style="fill:none;stroke:white;stroke-width:1px;"/>
        <path d="M346,134l34,64l-78,26l44,-90Z" style="fill:none;stroke:white;stroke-width:1px;"/>
        <path d="M272,176l30,48l44,-90l-74,42Z" style="fill:none;stroke:white;stroke-width:1px;"/>
        <path d="M8,132l66,-12l-8,70l-58,-58Z" style="fill:none;stroke:white;stroke-width:1px;"/>
        <path d="M8,132l6,98l52,-40l-58,-58Z" style="fill:none;stroke:white;stroke-width:1px;"/>
        <path d="M74,120l-8,70l44,16l-36,-86Z" style="fill:none;stroke:white;stroke-width:1px;"/>
        <path d="M110,206l14,-70l-50,-16l36,86Z" style="fill:none;stroke:white;stroke-width:1px;"/>
        <path d="M110,206l68,-44l-54,-26l-14,70Z" style="fill:none;stroke:white;stroke-width:1px;"/>
        <path d="M14,230l52,-40l44,16l-96,24Z" style="fill:none;stroke:white;stroke-width:1px;"/>
        <path d="M14,230l96,-24l-44,82l-52,-58Z" style="fill:none;stroke:white;stroke-width:1px;"/>
        <path d="M66,288l90,-18l-46,-64l-44,82Z" style="fill:none;stroke:white;stroke-width:1px;"/>
        <path d="M110,206l68,-44l40,68l-108,-24Z" style="fill:none;stroke:white;stroke-width:1px;"/>
        <path d="M156,270l62,-40l-108,-24l46,64Z" style="fill:none;stroke:white;stroke-width:1px;"/>
        <path d="M178,162l94,14l-54,54l-40,-68Z" style="fill:none;stroke:white;stroke-width:1px;"/>
        <path d="M156,270l62,-40l-18,54l-44,-14Z" style="fill:none;stroke:white;stroke-width:1px;"/>
        <path d="M272,176l-54,54l84,-6l-30,-48Z" style="fill:none;stroke:white;stroke-width:1px;"/>
        <path d="M218,230l-18,54l88,-12l-70,-42Z" style="fill:none;stroke:white;stroke-width:1px;"/>
        <path d="M218,230l84,-6l-14,48l-70,-42Z" style="fill:none;stroke:white;stroke-width:1px;"/>
        <path d="M302,224l78,-26l-18,52l-60,-26Z" style="fill:none;stroke:white;stroke-width:1px;"/>
        <path d="M200,284l24,16l64,-28l-88,12Z" style="fill:none;stroke:white;stroke-width:1px;"/>
        <path d="M200,284l24,16l-20,32l-4,-48Z" style="fill:none;stroke:white;stroke-width:1px;"/>
        <path d="M302,224l-14,48l52,20l-38,-68Z" style="fill:none;stroke:white;stroke-width:1px;"/>
        <path d="M302,224l60,26l-22,42l-38,-68Z" style="fill:none;stroke:white;stroke-width:1px;"/>
        <path d="M414,234l52,-14l-48,-60l-4,74Z" style="fill:none;stroke:white;stroke-width:1px;"/>
        <path d="M362,250l52,-16l-34,-36l-18,52Z" style="fill:none;stroke:white;stroke-width:1px;"/>
        <path d="M414,234l52,-14l-6,18l-46,-4Z" style="fill:none;stroke:white;stroke-width:1px;"/>
        <path d="M224,300l42,28l-62,4l20,-32Z" style="fill:none;stroke:white;stroke-width:1px;"/>
        <path d="M266,328l22,-56l-64,28l42,28Z" style="fill:none;stroke:white;stroke-width:1px;"/>
        <path d="M266,328l74,-36l-52,-20l-22,56Z" style="fill:none;stroke:white;stroke-width:1px;"/>
        <path d="M362,250l-22,42l70,-22l-48,-20Z" style="fill:none;stroke:white;stroke-width:1px;"/>
        <path d="M362,250l52,-16l-4,36l-48,-20Z" style="fill:none;stroke:white;stroke-width:1px;"/>
        <path d="M414,234l-4,36l50,-32l-46,-4Z" style="fill:none;stroke:white;stroke-width:1px;"/>
        <path d="M460,238l-50,32l58,-2l-8,-30Z" style="fill:none;stroke:white;stroke-width:1px;"/>
        <path d="M460,238l76,-10l-68,40l-8,-30Z" style="fill:none;stroke:white;stroke-width:1px;"/>
        <path d="M512,286l-44,-18l68,-40l-24,58Z" style="fill:none;stroke:white;stroke-width:1px;"/>
        <path d="M468,268l44,18l-32,30l-12,-48Z" style="fill:none;stroke:white;stroke-width:1px;"/>
        <path d="M410,270l58,-2l-40,56l-18,-54Z" style="fill:none;stroke:white;stroke-width:1px;"/>
        <path d="M428,324l40,-56l12,48l-52,8Z" style="fill:none;stroke:white;stroke-width:1px;"/>
        <path d="M340,292l70,-22l-18,32l-52,-10Z" style="fill:none;stroke:white;stroke-width:1px;"/>
        <path d="M392,302l18,-32l18,54l-36,-22Z" style="fill:none;stroke:white;stroke-width:1px;"/>
        <path d="M266,328l52,18l22,-54l-74,36Z" style="fill:none;stroke:white;stroke-width:1px;"/>
        <path d="M318,346l22,-54l28,56l-50,-2Z" style="fill:none;stroke:white;stroke-width:1px;"/>
        <path d="M340,292l52,10l-24,46l-28,-56Z" style="fill:none;stroke:white;stroke-width:1px;"/>
        <path d="M368,348l24,-46l36,22l-60,24Z" style="fill:none;stroke:white;stroke-width:1px;"/>
        <path d="M428,324l52,-8l-44,50l-8,-42Z" style="fill:none;stroke:white;stroke-width:1px;"/>
        <path d="M428,324l-26,58l34,-16l-8,-42Z" style="fill:none;stroke:white;stroke-width:1px;"/>
        <path d="M368,348l60,-24l-26,58l-34,-34Z" style="fill:none;stroke:white;stroke-width:1px;"/>
        <path d="M368,348l-36,36l70,-2l-34,-34Z" style="fill:none;stroke:white;stroke-width:1px;"/>
        <path d="M318,346l50,2l-36,36l-14,-38Z" style="fill:none;stroke:white;stroke-width:1px;"/>
        <path d="M318,346l-40,28l-12,-46l52,18Z" style="fill:none;stroke:white;stroke-width:1px;"/>
        <path d="M204,332l62,-4l12,46l-74,-42Z" style="fill:none;stroke:white;stroke-width:1px;"/>
        <path d="M204,332l74,42l-50,2l-24,-44Z" style="fill:none;stroke:white;stroke-width:1px;"/>
        <path d="M278,374l40,-28l14,38l-54,-10Z" style="fill:none;stroke:white;stroke-width:1px;"/>
        <path d="M228,376l50,-2l20,44l-70,-42Z" style="fill:none;stroke:white;stroke-width:1px;"/>
        <path d="M278,374l54,10l-34,34l-20,-44Z" style="fill:none;stroke:white;stroke-width:1px;"/>
        <path d="M362,420l-64,-2l34,-34l30,36Z" style="fill:none;stroke:white;stroke-width:1px;"/>
        <path d="M402,382l-70,2l30,36l40,-38Z" style="fill:none;stroke:white;stroke-width:1px;"/>
        <path d="M402,382l34,-16l4,44l-38,-28Z" style="fill:none;stroke:white;stroke-width:1px;"/>
        <path d="M402,382l38,28l-42,38l4,-66Z" style="fill:none;stroke:white;stroke-width:1px;"/>
        <path d="M298,418l-70,-42l8,30l62,12Z" style="fill:none;stroke:white;stroke-width:1px;"/>
        <path d="M362,420l40,-38l-4,66l-36,-28Z" style="fill:none;stroke:white;stroke-width:1px;"/>
        <path d="M440,410l-42,38l52,-2l-10,-36Z" style="fill:none;stroke:white;stroke-width:1px;"/>
        <path d="M398,448l52,-2l-26,32l-26,-30Z" style="fill:none;stroke:white;stroke-width:1px;"/>
        <path d="M236,406l62,12l-38,22l-24,-34Z" style="fill:none;stroke:white;stroke-width:1px;"/>
        <path d="M338,458l-40,-40l-38,22l78,18Z" style="fill:none;stroke:white;stroke-width:1px;"/>
        <path d="M222,468l14,-62l24,34l-38,28Z" style="fill:none;stroke:white;stroke-width:1px;"/>
        <path d="M292,488l-32,-48l-38,28l70,20Z" style="fill:none;stroke:white;stroke-width:1px;"/>
        <path d="M398,448l-60,10l24,-38l36,28Z" style="fill:none;stroke:white;stroke-width:1px;"/>
        <path d="M298,418l64,2l-24,38l-40,-40Z" style="fill:none;stroke:white;stroke-width:1px;"/>
        <path d="M292,488l46,-30l-78,-18l32,48Z" style="fill:none;stroke:white;stroke-width:1px;"/>
        <path d="M398,448l-30,56l56,-26l-26,-30Z" style="fill:none;stroke:white;stroke-width:1px;"/>
        <path d="M338,458l60,-10l-30,56l-30,-46Z" style="fill:none;stroke:white;stroke-width:1px;"/>
        <path d="M292,488l46,-30l-12,46l-34,-16Z" style="fill:none;stroke:white;stroke-width:1px;"/>
        <path d="M368,504l-42,0l12,-46l30,46Z" style="fill:none;stroke:white;stroke-width:1px;"/>
        <path d="M222,468l70,20l-54,20l-16,-40Z" style="fill:none;stroke:white;stroke-width:1px;"/>
        <path d="M268,530l24,-42l-54,20l30,22Z" style="fill:none;stroke:white;stroke-width:1px;"/>
        <path d="M368,504l56,-26l-22,26l-34,-0Z" style="fill:none;stroke:white;stroke-width:1px;"/>
        <path d="M292,488l-24,42l32,16l-8,-58Z" style="fill:none;stroke:white;stroke-width:1px;"/>
        <path d="M326,504l-34,-16l8,58l26,-42Z" style="fill:none;stroke:white;stroke-width:1px;"/>
        <path d="M300,546l62,14l-36,-56l-26,42Z" style="fill:none;stroke:white;stroke-width:1px;"/>
        <path d="M326,504l42,-0l-6,56l-36,-56Z" style="fill:none;stroke:white;stroke-width:1px;"/>
        <path d="M402,504l6,16l-40,-16l34,-0Z" style="fill:none;stroke:white;stroke-width:1px;"/>
        <path d="M396,540l-28,-36l40,16l-12,20Z" style="fill:none;stroke:white;stroke-width:1px;"/>
        <path d="M362,560l34,-20l-28,-36l-6,56Z" style="fill:none;stroke:white;stroke-width:1px;"/>
        <path d="M238,508l14,58l16,-36l-30,-22Z" style="fill:none;stroke:white;stroke-width:1px;"/>
        <path d="M252,566l16,-36l32,16l-48,20Z" style="fill:none;stroke:white;stroke-width:1px;"/>
        <path d="M252,566l48,-20l-12,38l-36,-18Z" style="fill:none;stroke:white;stroke-width:1px;"/>
        <path d="M300,546l-12,38l42,8l-30,-46Z" style="fill:none;stroke:white;stroke-width:1px;"/>
        <path d="M300,546l62,14l-32,32l-30,-46Z" style="fill:none;stroke:white;stroke-width:1px;"/>
        <path d="M362,560l34,-20l-22,42l-12,-22Z" style="fill:none;stroke:white;stroke-width:1px;"/>
        <path d="M330,592l32,-32l12,22l-44,10Z" style="fill:none;stroke:white;stroke-width:1px;"/>
        <path d="M330,592l44,-10l-44,38l-0,-28Z" style="fill:none;stroke:white;stroke-width:1px;"/>
        <path d="M252,566l36,18l-14,22l-22,-40Z" style="fill:none;stroke:white;stroke-width:1px;"/>
        <path d="M330,592l-42,-8l-14,22l56,-14Z" style="fill:none;stroke:white;stroke-width:1px;"/>
        <path d="M286,624l-12,-18l56,-14l-44,32Z" style="fill:none;stroke:white;stroke-width:1px;"/>
        <path d="M330,592l-44,32l44,-4l-0,-28Z" style="fill:none;stroke:white;stroke-width:1px;"/>
        <path d="M480,462l36,-24l6,20l-42,4Z" style="fill:none;stroke:white;stroke-width:1px;"/>
        <path d="M480,462l42,-4l-8,22l-34,-18Z" style="fill:none;stroke:white;stroke-width:1px;"/>
        <path d="M480,462l-2,20l36,-2l-34,-18Z" style="fill:none;stroke:white;stroke-width:1px;"/>
        <path d="M514,480l-10,26l-26,-24l36,-2Z" style="fill:none;stroke:white;stroke-width:1px;"/>
        <path d="M478,482l8,34l18,-10l-26,-24Z" style="fill:none;stroke:white;stroke-width:1px;"/>
        <path d="M478,482l-14,34l22,-0l-8,-34Z" style="fill:none;stroke:white;stroke-width:1px;"/>
        <path d="M480,550l-16,-34l22,-0l-6,34Z" style="fill:none;stroke:white;stroke-width:1px;"/>
        <path d="M486,516l18,-10l-6,34l-12,-24Z" style="fill:none;stroke:white;stroke-width:1px;"/>
        <path d="M480,550l18,-10l-12,-24l-6,34Z" style="fill:none;stroke:white;stroke-width:1px;"/>
    </g>
</svg>
